<mxfile host="app.diagrams.net" agent="Mozilla/5.0 (X11; Linux x86_64) AppleWebKit/537.36 (KHTML, like Gecko) Chrome/133.0.0.0 Safari/537.36" version="26.0.16">
  <diagram name="Страница — 1" id="hII7Ly5udF0Or0JNaGoL">
    <mxGraphModel dx="2074" dy="1142" grid="1" gridSize="10" guides="1" tooltips="1" connect="1" arrows="1" fold="1" page="1" pageScale="1" pageWidth="827" pageHeight="1169" math="0" shadow="0">
      <root>
        <mxCell id="0" />
        <mxCell id="1" parent="0" />
        <mxCell id="DbjakEhUT0rDd5aO4bZs-2" value="Карта IT ландшафта" style="shape=table;childLayout=tableLayout;startSize=40;collapsible=0;recursiveResize=0;expand=0;fontSize=16;fillColor=#6d8764;fontColor=#ffffff;strokeColor=#3A5431;" vertex="1" parent="1">
          <mxGeometry x="130" y="260" width="1210" height="1101" as="geometry" />
        </mxCell>
        <mxCell id="DbjakEhUT0rDd5aO4bZs-3" value="Управление&#xa;обслуживанием&#xa;в сети отделений" style="shape=tableRow;horizontal=0;swimlaneHead=0;swimlaneBody=0;top=0;left=0;strokeColor=#314354;bottom=0;right=0;dropTarget=0;fontStyle=0;fillColor=#647687;points=[[0,0.5],[1,0.5]];portConstraint=eastwest;startSize=70;collapsible=0;recursiveResize=0;expand=0;fontSize=16;fontColor=#ffffff;" vertex="1" parent="DbjakEhUT0rDd5aO4bZs-2">
          <mxGeometry y="40" width="1210" height="177" as="geometry" />
        </mxCell>
        <mxCell id="DbjakEhUT0rDd5aO4bZs-4" value="Продажи через кол-центр" style="swimlane;swimlaneHead=0;swimlaneBody=0;fontStyle=0;strokeColor=#314354;connectable=0;fillColor=#647687;startSize=40;collapsible=0;recursiveResize=0;expand=0;fontSize=16;fontColor=#ffffff;" vertex="1" parent="DbjakEhUT0rDd5aO4bZs-3">
          <mxGeometry x="70" width="210" height="177" as="geometry">
            <mxRectangle width="210" height="177" as="alternateBounds" />
          </mxGeometry>
        </mxCell>
        <mxCell id="DbjakEhUT0rDd5aO4bZs-5" value="Продажи в сети отделений" style="swimlane;swimlaneHead=0;swimlaneBody=0;fontStyle=0;strokeColor=#314354;connectable=0;fillColor=#647687;startSize=40;collapsible=0;recursiveResize=0;expand=0;fontSize=16;fontColor=#ffffff;" vertex="1" parent="DbjakEhUT0rDd5aO4bZs-3">
          <mxGeometry x="280" width="210" height="177" as="geometry">
            <mxRectangle width="210" height="177" as="alternateBounds" />
          </mxGeometry>
        </mxCell>
        <mxCell id="DbjakEhUT0rDd5aO4bZs-92" value="АБС" style="rounded=1;whiteSpace=wrap;html=1;fillColor=#cdeb8b;strokeColor=#36393d;" vertex="1" parent="DbjakEhUT0rDd5aO4bZs-5">
          <mxGeometry x="45" y="80" width="120" height="60" as="geometry" />
        </mxCell>
        <mxCell id="DbjakEhUT0rDd5aO4bZs-6" value="Digital-оповещения&#xa;клиентов" style="swimlane;swimlaneHead=0;swimlaneBody=0;fontStyle=0;strokeColor=#314354;connectable=0;fillColor=#647687;startSize=40;collapsible=0;recursiveResize=0;expand=0;fontSize=16;fontColor=#ffffff;" vertex="1" parent="DbjakEhUT0rDd5aO4bZs-3">
          <mxGeometry x="490" width="160" height="177" as="geometry">
            <mxRectangle width="160" height="177" as="alternateBounds" />
          </mxGeometry>
        </mxCell>
        <mxCell id="DbjakEhUT0rDd5aO4bZs-49" value="Обслуживание&#xa;депозитных процессов" style="swimlane;swimlaneHead=0;swimlaneBody=0;fontStyle=0;strokeColor=#314354;connectable=0;fillColor=#647687;startSize=40;collapsible=0;recursiveResize=0;expand=0;fontSize=16;fontColor=#ffffff;" vertex="1" parent="DbjakEhUT0rDd5aO4bZs-3">
          <mxGeometry x="650" width="180" height="177" as="geometry">
            <mxRectangle width="180" height="177" as="alternateBounds" />
          </mxGeometry>
        </mxCell>
        <mxCell id="DbjakEhUT0rDd5aO4bZs-91" value="&lt;span style=&quot;font-weight: normal;&quot;&gt;АБС&lt;/span&gt;" style="rounded=1;whiteSpace=wrap;html=1;fillColor=#cdeb8b;strokeColor=#36393d;fontStyle=1" vertex="1" parent="DbjakEhUT0rDd5aO4bZs-49">
          <mxGeometry x="30" y="80" width="120" height="60" as="geometry" />
        </mxCell>
        <mxCell id="DbjakEhUT0rDd5aO4bZs-55" value="Обслуживание &#xa;кредитных процессов" style="swimlane;swimlaneHead=0;swimlaneBody=0;fontStyle=0;strokeColor=#314354;connectable=0;fillColor=#647687;startSize=40;collapsible=0;recursiveResize=0;expand=0;fontSize=16;fontColor=#ffffff;" vertex="1" parent="DbjakEhUT0rDd5aO4bZs-3">
          <mxGeometry x="830" width="180" height="177" as="geometry">
            <mxRectangle width="180" height="177" as="alternateBounds" />
          </mxGeometry>
        </mxCell>
        <mxCell id="DbjakEhUT0rDd5aO4bZs-61" value="Управление договорами" style="swimlane;swimlaneHead=0;swimlaneBody=0;fontStyle=0;strokeColor=#314354;connectable=0;fillColor=#647687;startSize=40;collapsible=0;recursiveResize=0;expand=0;fontSize=16;fontColor=#ffffff;" vertex="1" parent="DbjakEhUT0rDd5aO4bZs-3">
          <mxGeometry x="1010" width="200" height="177" as="geometry">
            <mxRectangle width="200" height="177" as="alternateBounds" />
          </mxGeometry>
        </mxCell>
        <mxCell id="DbjakEhUT0rDd5aO4bZs-90" value="АБС" style="rounded=1;whiteSpace=wrap;html=1;fillColor=#cdeb8b;strokeColor=#36393d;" vertex="1" parent="DbjakEhUT0rDd5aO4bZs-61">
          <mxGeometry x="40" y="80" width="120" height="60" as="geometry" />
        </mxCell>
        <mxCell id="DbjakEhUT0rDd5aO4bZs-7" value="Кол-Центр" style="shape=tableRow;horizontal=0;swimlaneHead=0;swimlaneBody=0;top=0;left=0;strokeColor=#314354;bottom=0;right=0;dropTarget=0;fontStyle=0;fillColor=#647687;points=[[0,0.5],[1,0.5]];portConstraint=eastwest;startSize=70;collapsible=0;recursiveResize=0;expand=0;fontSize=16;fontColor=#ffffff;" vertex="1" parent="DbjakEhUT0rDd5aO4bZs-2">
          <mxGeometry y="217" width="1210" height="176" as="geometry" />
        </mxCell>
        <mxCell id="DbjakEhUT0rDd5aO4bZs-8" value="" style="swimlane;swimlaneHead=0;swimlaneBody=0;fontStyle=0;connectable=0;strokeColor=#36393d;fillColor=#ffff88;startSize=0;collapsible=0;recursiveResize=0;expand=0;fontSize=16;" vertex="1" parent="DbjakEhUT0rDd5aO4bZs-7">
          <mxGeometry x="70" width="210" height="176" as="geometry">
            <mxRectangle width="210" height="176" as="alternateBounds" />
          </mxGeometry>
        </mxCell>
        <mxCell id="DbjakEhUT0rDd5aO4bZs-67" value="АБС" style="rounded=1;whiteSpace=wrap;html=1;fillColor=#cdeb8b;strokeColor=#36393d;" vertex="1" parent="DbjakEhUT0rDd5aO4bZs-8">
          <mxGeometry x="30" y="65" width="120" height="43" as="geometry" />
        </mxCell>
        <mxCell id="DbjakEhUT0rDd5aO4bZs-85" value="система кол центра" style="rounded=1;whiteSpace=wrap;html=1;fillColor=#cce5ff;strokeColor=#36393d;" vertex="1" parent="DbjakEhUT0rDd5aO4bZs-8">
          <mxGeometry x="30" y="123" width="120" height="97" as="geometry" />
        </mxCell>
        <mxCell id="DbjakEhUT0rDd5aO4bZs-9" value="" style="swimlane;swimlaneHead=0;swimlaneBody=0;fontStyle=0;connectable=0;strokeColor=inherit;fillColor=none;startSize=0;collapsible=0;recursiveResize=0;expand=0;fontSize=16;" vertex="1" parent="DbjakEhUT0rDd5aO4bZs-7">
          <mxGeometry x="280" width="210" height="176" as="geometry">
            <mxRectangle width="210" height="176" as="alternateBounds" />
          </mxGeometry>
        </mxCell>
        <mxCell id="DbjakEhUT0rDd5aO4bZs-10" value="" style="swimlane;swimlaneHead=0;swimlaneBody=0;fontStyle=0;connectable=0;strokeColor=inherit;fillColor=none;startSize=0;collapsible=0;recursiveResize=0;expand=0;fontSize=16;" vertex="1" parent="DbjakEhUT0rDd5aO4bZs-7">
          <mxGeometry x="490" width="160" height="176" as="geometry">
            <mxRectangle width="160" height="176" as="alternateBounds" />
          </mxGeometry>
        </mxCell>
        <mxCell id="DbjakEhUT0rDd5aO4bZs-50" style="swimlane;swimlaneHead=0;swimlaneBody=0;fontStyle=0;connectable=0;strokeColor=inherit;fillColor=none;startSize=0;collapsible=0;recursiveResize=0;expand=0;fontSize=16;" vertex="1" parent="DbjakEhUT0rDd5aO4bZs-7">
          <mxGeometry x="650" width="180" height="176" as="geometry">
            <mxRectangle width="180" height="176" as="alternateBounds" />
          </mxGeometry>
        </mxCell>
        <mxCell id="DbjakEhUT0rDd5aO4bZs-69" value="АБС" style="rounded=1;whiteSpace=wrap;html=1;fillColor=#cdeb8b;strokeColor=#36393d;" vertex="1" parent="DbjakEhUT0rDd5aO4bZs-50">
          <mxGeometry x="30" y="58" width="120" height="60" as="geometry" />
        </mxCell>
        <mxCell id="DbjakEhUT0rDd5aO4bZs-56" style="swimlane;swimlaneHead=0;swimlaneBody=0;fontStyle=0;connectable=0;strokeColor=inherit;fillColor=none;startSize=0;collapsible=0;recursiveResize=0;expand=0;fontSize=16;" vertex="1" parent="DbjakEhUT0rDd5aO4bZs-7">
          <mxGeometry x="830" width="180" height="176" as="geometry">
            <mxRectangle width="180" height="176" as="alternateBounds" />
          </mxGeometry>
        </mxCell>
        <mxCell id="DbjakEhUT0rDd5aO4bZs-68" value="" style="swimlane;swimlaneHead=0;swimlaneBody=0;fontStyle=0;connectable=0;strokeColor=#432D57;fillColor=#76608a;startSize=0;collapsible=0;recursiveResize=0;expand=0;fontSize=16;fontColor=#ffffff;" vertex="1" parent="DbjakEhUT0rDd5aO4bZs-56">
          <mxGeometry x="-10" width="210" height="176" as="geometry">
            <mxRectangle width="210" height="176" as="alternateBounds" />
          </mxGeometry>
        </mxCell>
        <mxCell id="DbjakEhUT0rDd5aO4bZs-62" style="swimlane;swimlaneHead=0;swimlaneBody=0;fontStyle=0;connectable=0;strokeColor=inherit;fillColor=none;startSize=0;collapsible=0;recursiveResize=0;expand=0;fontSize=16;" vertex="1" parent="DbjakEhUT0rDd5aO4bZs-7">
          <mxGeometry x="1010" width="200" height="176" as="geometry">
            <mxRectangle width="200" height="176" as="alternateBounds" />
          </mxGeometry>
        </mxCell>
        <mxCell id="DbjakEhUT0rDd5aO4bZs-11" value="IT-отдел" style="shape=tableRow;horizontal=0;swimlaneHead=0;swimlaneBody=0;top=0;left=0;strokeColor=#314354;bottom=0;right=0;dropTarget=0;fontStyle=0;fillColor=#647687;points=[[0,0.5],[1,0.5]];portConstraint=eastwest;startSize=70;collapsible=0;recursiveResize=0;expand=0;fontSize=16;fontColor=#ffffff;" vertex="1" parent="DbjakEhUT0rDd5aO4bZs-2">
          <mxGeometry y="393" width="1210" height="177" as="geometry" />
        </mxCell>
        <mxCell id="DbjakEhUT0rDd5aO4bZs-12" value="" style="swimlane;swimlaneHead=0;swimlaneBody=0;fontStyle=0;connectable=0;strokeColor=inherit;fillColor=none;startSize=0;collapsible=0;recursiveResize=0;expand=0;fontSize=16;" vertex="1" parent="DbjakEhUT0rDd5aO4bZs-11">
          <mxGeometry x="70" width="210" height="177" as="geometry">
            <mxRectangle width="210" height="177" as="alternateBounds" />
          </mxGeometry>
        </mxCell>
        <mxCell id="DbjakEhUT0rDd5aO4bZs-13" value="" style="swimlane;swimlaneHead=0;swimlaneBody=0;fontStyle=0;connectable=0;strokeColor=inherit;fillColor=none;startSize=0;collapsible=0;recursiveResize=0;expand=0;fontSize=16;" vertex="1" parent="DbjakEhUT0rDd5aO4bZs-11">
          <mxGeometry x="280" width="210" height="177" as="geometry">
            <mxRectangle width="210" height="177" as="alternateBounds" />
          </mxGeometry>
        </mxCell>
        <mxCell id="DbjakEhUT0rDd5aO4bZs-14" value="" style="swimlane;swimlaneHead=0;swimlaneBody=0;fontStyle=0;connectable=0;strokeColor=inherit;fillColor=none;startSize=0;collapsible=0;recursiveResize=0;expand=0;fontSize=16;" vertex="1" parent="DbjakEhUT0rDd5aO4bZs-11">
          <mxGeometry x="490" width="160" height="177" as="geometry">
            <mxRectangle width="160" height="177" as="alternateBounds" />
          </mxGeometry>
        </mxCell>
        <mxCell id="DbjakEhUT0rDd5aO4bZs-80" value="телеком оператор" style="rounded=1;whiteSpace=wrap;html=1;fillColor=#ffcccc;strokeColor=#36393d;" vertex="1" parent="DbjakEhUT0rDd5aO4bZs-14">
          <mxGeometry x="30" y="17" width="110" height="32" as="geometry" />
        </mxCell>
        <mxCell id="DbjakEhUT0rDd5aO4bZs-81" value="СМС-шлюз" style="rounded=1;whiteSpace=wrap;html=1;fillColor=#ffcc99;strokeColor=#36393d;" vertex="1" parent="DbjakEhUT0rDd5aO4bZs-14">
          <mxGeometry x="30" y="66" width="110" height="32" as="geometry" />
        </mxCell>
        <mxCell id="DbjakEhUT0rDd5aO4bZs-51" style="swimlane;swimlaneHead=0;swimlaneBody=0;fontStyle=0;connectable=0;strokeColor=inherit;fillColor=none;startSize=0;collapsible=0;recursiveResize=0;expand=0;fontSize=16;" vertex="1" parent="DbjakEhUT0rDd5aO4bZs-11">
          <mxGeometry x="650" width="180" height="177" as="geometry">
            <mxRectangle width="180" height="177" as="alternateBounds" />
          </mxGeometry>
        </mxCell>
        <mxCell id="DbjakEhUT0rDd5aO4bZs-86" value="СМС-шлюз" style="rounded=1;whiteSpace=wrap;html=1;fillColor=#ffcc99;strokeColor=#36393d;" vertex="1" parent="DbjakEhUT0rDd5aO4bZs-51">
          <mxGeometry x="35" y="98" width="110" height="32" as="geometry" />
        </mxCell>
        <mxCell id="DbjakEhUT0rDd5aO4bZs-57" style="swimlane;swimlaneHead=0;swimlaneBody=0;fontStyle=0;connectable=0;strokeColor=inherit;fillColor=none;startSize=0;collapsible=0;recursiveResize=0;expand=0;fontSize=16;" vertex="1" parent="DbjakEhUT0rDd5aO4bZs-11">
          <mxGeometry x="830" width="180" height="177" as="geometry">
            <mxRectangle width="180" height="177" as="alternateBounds" />
          </mxGeometry>
        </mxCell>
        <mxCell id="DbjakEhUT0rDd5aO4bZs-63" style="swimlane;swimlaneHead=0;swimlaneBody=0;fontStyle=0;connectable=0;strokeColor=inherit;fillColor=none;startSize=0;collapsible=0;recursiveResize=0;expand=0;fontSize=16;" vertex="1" parent="DbjakEhUT0rDd5aO4bZs-11">
          <mxGeometry x="1010" width="200" height="177" as="geometry">
            <mxRectangle width="200" height="177" as="alternateBounds" />
          </mxGeometry>
        </mxCell>
        <mxCell id="DbjakEhUT0rDd5aO4bZs-37" value="Управление&#xa;обслуживанием&#xa;депозитных продуктов" style="shape=tableRow;horizontal=0;swimlaneHead=0;swimlaneBody=0;top=0;left=0;strokeColor=#314354;bottom=0;right=0;dropTarget=0;fontStyle=0;fillColor=#647687;points=[[0,0.5],[1,0.5]];portConstraint=eastwest;startSize=70;collapsible=0;recursiveResize=0;expand=0;fontSize=16;fontColor=#ffffff;" vertex="1" parent="DbjakEhUT0rDd5aO4bZs-2">
          <mxGeometry y="570" width="1210" height="177" as="geometry" />
        </mxCell>
        <mxCell id="DbjakEhUT0rDd5aO4bZs-38" style="swimlane;swimlaneHead=0;swimlaneBody=0;fontStyle=0;connectable=0;strokeColor=inherit;fillColor=none;startSize=0;collapsible=0;recursiveResize=0;expand=0;fontSize=16;" vertex="1" parent="DbjakEhUT0rDd5aO4bZs-37">
          <mxGeometry x="70" width="210" height="177" as="geometry">
            <mxRectangle width="210" height="177" as="alternateBounds" />
          </mxGeometry>
        </mxCell>
        <mxCell id="DbjakEhUT0rDd5aO4bZs-39" style="swimlane;swimlaneHead=0;swimlaneBody=0;fontStyle=0;connectable=0;strokeColor=inherit;fillColor=none;startSize=0;collapsible=0;recursiveResize=0;expand=0;fontSize=16;" vertex="1" parent="DbjakEhUT0rDd5aO4bZs-37">
          <mxGeometry x="280" width="210" height="177" as="geometry">
            <mxRectangle width="210" height="177" as="alternateBounds" />
          </mxGeometry>
        </mxCell>
        <mxCell id="DbjakEhUT0rDd5aO4bZs-40" style="swimlane;swimlaneHead=0;swimlaneBody=0;fontStyle=0;connectable=0;strokeColor=inherit;fillColor=none;startSize=0;collapsible=0;recursiveResize=0;expand=0;fontSize=16;" vertex="1" parent="DbjakEhUT0rDd5aO4bZs-37">
          <mxGeometry x="490" width="160" height="177" as="geometry">
            <mxRectangle width="160" height="177" as="alternateBounds" />
          </mxGeometry>
        </mxCell>
        <mxCell id="DbjakEhUT0rDd5aO4bZs-73" style="swimlane;swimlaneHead=0;swimlaneBody=0;fontStyle=0;connectable=0;strokeColor=inherit;fillColor=none;startSize=0;collapsible=0;recursiveResize=0;expand=0;fontSize=16;" vertex="1" parent="DbjakEhUT0rDd5aO4bZs-40">
          <mxGeometry x="-20" width="180" height="177" as="geometry">
            <mxRectangle width="180" height="177" as="alternateBounds" />
          </mxGeometry>
        </mxCell>
        <mxCell id="DbjakEhUT0rDd5aO4bZs-74" style="swimlane;swimlaneHead=0;swimlaneBody=0;fontStyle=0;connectable=0;strokeColor=inherit;fillColor=none;startSize=0;collapsible=0;recursiveResize=0;expand=0;fontSize=16;" vertex="1" parent="DbjakEhUT0rDd5aO4bZs-73">
          <mxGeometry y="1" width="180" height="176" as="geometry">
            <mxRectangle width="180" height="176" as="alternateBounds" />
          </mxGeometry>
        </mxCell>
        <mxCell id="DbjakEhUT0rDd5aO4bZs-52" style="swimlane;swimlaneHead=0;swimlaneBody=0;fontStyle=0;connectable=0;strokeColor=inherit;fillColor=none;startSize=0;collapsible=0;recursiveResize=0;expand=0;fontSize=16;" vertex="1" parent="DbjakEhUT0rDd5aO4bZs-37">
          <mxGeometry x="650" width="180" height="177" as="geometry">
            <mxRectangle width="180" height="177" as="alternateBounds" />
          </mxGeometry>
        </mxCell>
        <mxCell id="DbjakEhUT0rDd5aO4bZs-72" value="АБС" style="rounded=1;whiteSpace=wrap;html=1;fillColor=#cdeb8b;strokeColor=#36393d;" vertex="1" parent="DbjakEhUT0rDd5aO4bZs-52">
          <mxGeometry x="-280" y="140" width="380" height="20" as="geometry" />
        </mxCell>
        <mxCell id="DbjakEhUT0rDd5aO4bZs-58" value="" style="swimlane;swimlaneHead=0;swimlaneBody=0;fontStyle=0;connectable=0;strokeColor=inherit;fillColor=none;startSize=0;collapsible=0;recursiveResize=0;expand=0;fontSize=16;" vertex="1" parent="DbjakEhUT0rDd5aO4bZs-37">
          <mxGeometry x="830" width="180" height="177" as="geometry">
            <mxRectangle width="180" height="177" as="alternateBounds" />
          </mxGeometry>
        </mxCell>
        <mxCell id="DbjakEhUT0rDd5aO4bZs-64" style="swimlane;swimlaneHead=0;swimlaneBody=0;fontStyle=0;connectable=0;strokeColor=inherit;fillColor=none;startSize=0;collapsible=0;recursiveResize=0;expand=0;fontSize=16;" vertex="1" parent="DbjakEhUT0rDd5aO4bZs-37">
          <mxGeometry x="1010" width="200" height="177" as="geometry">
            <mxRectangle width="200" height="177" as="alternateBounds" />
          </mxGeometry>
        </mxCell>
        <mxCell id="DbjakEhUT0rDd5aO4bZs-45" value="Управление&#xa;обслуживанием&#xa;кредитных продуктов" style="shape=tableRow;horizontal=0;swimlaneHead=0;swimlaneBody=0;top=0;left=0;strokeColor=#314354;bottom=0;right=0;dropTarget=0;fontStyle=0;fillColor=#647687;points=[[0,0.5],[1,0.5]];portConstraint=eastwest;startSize=70;collapsible=0;recursiveResize=0;expand=0;fontSize=16;fontColor=#ffffff;" vertex="1" parent="DbjakEhUT0rDd5aO4bZs-2">
          <mxGeometry y="747" width="1210" height="177" as="geometry" />
        </mxCell>
        <mxCell id="DbjakEhUT0rDd5aO4bZs-46" style="swimlane;swimlaneHead=0;swimlaneBody=0;fontStyle=0;connectable=0;strokeColor=inherit;fillColor=none;startSize=0;collapsible=0;recursiveResize=0;expand=0;fontSize=16;" vertex="1" parent="DbjakEhUT0rDd5aO4bZs-45">
          <mxGeometry x="70" width="210" height="177" as="geometry">
            <mxRectangle width="210" height="177" as="alternateBounds" />
          </mxGeometry>
        </mxCell>
        <mxCell id="DbjakEhUT0rDd5aO4bZs-47" style="swimlane;swimlaneHead=0;swimlaneBody=0;fontStyle=0;connectable=0;strokeColor=inherit;fillColor=none;startSize=0;collapsible=0;recursiveResize=0;expand=0;fontSize=16;" vertex="1" parent="DbjakEhUT0rDd5aO4bZs-45">
          <mxGeometry x="280" width="210" height="177" as="geometry">
            <mxRectangle width="210" height="177" as="alternateBounds" />
          </mxGeometry>
        </mxCell>
        <mxCell id="DbjakEhUT0rDd5aO4bZs-48" style="swimlane;swimlaneHead=0;swimlaneBody=0;fontStyle=0;connectable=0;strokeColor=inherit;fillColor=none;startSize=0;collapsible=0;recursiveResize=0;expand=0;fontSize=16;" vertex="1" parent="DbjakEhUT0rDd5aO4bZs-45">
          <mxGeometry x="490" width="160" height="177" as="geometry">
            <mxRectangle width="160" height="177" as="alternateBounds" />
          </mxGeometry>
        </mxCell>
        <mxCell id="DbjakEhUT0rDd5aO4bZs-53" style="swimlane;swimlaneHead=0;swimlaneBody=0;fontStyle=0;connectable=0;strokeColor=inherit;fillColor=none;startSize=0;collapsible=0;recursiveResize=0;expand=0;fontSize=16;" vertex="1" parent="DbjakEhUT0rDd5aO4bZs-45">
          <mxGeometry x="650" width="180" height="177" as="geometry">
            <mxRectangle width="180" height="177" as="alternateBounds" />
          </mxGeometry>
        </mxCell>
        <mxCell id="DbjakEhUT0rDd5aO4bZs-70" style="swimlane;swimlaneHead=0;swimlaneBody=0;fontStyle=0;connectable=0;strokeColor=inherit;fillColor=none;startSize=0;collapsible=0;recursiveResize=0;expand=0;fontSize=16;" vertex="1" parent="DbjakEhUT0rDd5aO4bZs-53">
          <mxGeometry y="1" width="180" height="176" as="geometry">
            <mxRectangle width="180" height="176" as="alternateBounds" />
          </mxGeometry>
        </mxCell>
        <mxCell id="DbjakEhUT0rDd5aO4bZs-71" value="АБС" style="rounded=1;whiteSpace=wrap;html=1;fillColor=#cdeb8b;strokeColor=#36393d;" vertex="1" parent="DbjakEhUT0rDd5aO4bZs-70">
          <mxGeometry x="35" y="72" width="110" height="60" as="geometry" />
        </mxCell>
        <mxCell id="DbjakEhUT0rDd5aO4bZs-59" style="swimlane;swimlaneHead=0;swimlaneBody=0;fontStyle=0;connectable=0;strokeColor=inherit;fillColor=none;startSize=0;collapsible=0;recursiveResize=0;expand=0;fontSize=16;" vertex="1" parent="DbjakEhUT0rDd5aO4bZs-45">
          <mxGeometry x="830" width="180" height="177" as="geometry">
            <mxRectangle width="180" height="177" as="alternateBounds" />
          </mxGeometry>
        </mxCell>
        <mxCell id="DbjakEhUT0rDd5aO4bZs-65" style="swimlane;swimlaneHead=0;swimlaneBody=0;fontStyle=0;connectable=0;strokeColor=inherit;fillColor=none;startSize=0;collapsible=0;recursiveResize=0;expand=0;fontSize=16;" vertex="1" parent="DbjakEhUT0rDd5aO4bZs-45">
          <mxGeometry x="1010" width="200" height="177" as="geometry">
            <mxRectangle width="200" height="177" as="alternateBounds" />
          </mxGeometry>
        </mxCell>
        <mxCell id="DbjakEhUT0rDd5aO4bZs-41" value="Команда цифровой&#xa; трансформации &#xa;розничного бизнеса&#xa;" style="shape=tableRow;horizontal=0;swimlaneHead=0;swimlaneBody=0;top=0;left=0;strokeColor=#314354;bottom=0;right=0;dropTarget=0;fontStyle=0;fillColor=#647687;points=[[0,0.5],[1,0.5]];portConstraint=eastwest;startSize=70;collapsible=0;recursiveResize=0;expand=0;fontSize=16;fontColor=#ffffff;" vertex="1" parent="DbjakEhUT0rDd5aO4bZs-2">
          <mxGeometry y="924" width="1210" height="177" as="geometry" />
        </mxCell>
        <mxCell id="DbjakEhUT0rDd5aO4bZs-42" style="swimlane;swimlaneHead=0;swimlaneBody=0;fontStyle=0;connectable=0;strokeColor=inherit;fillColor=none;startSize=0;collapsible=0;recursiveResize=0;expand=0;fontSize=16;" vertex="1" parent="DbjakEhUT0rDd5aO4bZs-41">
          <mxGeometry x="70" width="210" height="177" as="geometry">
            <mxRectangle width="210" height="177" as="alternateBounds" />
          </mxGeometry>
        </mxCell>
        <mxCell id="DbjakEhUT0rDd5aO4bZs-43" style="swimlane;swimlaneHead=0;swimlaneBody=0;fontStyle=0;connectable=0;strokeColor=inherit;fillColor=none;startSize=0;collapsible=0;recursiveResize=0;expand=0;fontSize=16;" vertex="1" parent="DbjakEhUT0rDd5aO4bZs-41">
          <mxGeometry x="280" width="210" height="177" as="geometry">
            <mxRectangle width="210" height="177" as="alternateBounds" />
          </mxGeometry>
        </mxCell>
        <mxCell id="DbjakEhUT0rDd5aO4bZs-44" style="swimlane;swimlaneHead=0;swimlaneBody=0;fontStyle=0;connectable=0;strokeColor=inherit;fillColor=none;startSize=0;collapsible=0;recursiveResize=0;expand=0;fontSize=16;" vertex="1" parent="DbjakEhUT0rDd5aO4bZs-41">
          <mxGeometry x="490" width="160" height="177" as="geometry">
            <mxRectangle width="160" height="177" as="alternateBounds" />
          </mxGeometry>
        </mxCell>
        <mxCell id="DbjakEhUT0rDd5aO4bZs-54" style="swimlane;swimlaneHead=0;swimlaneBody=0;fontStyle=0;connectable=0;strokeColor=inherit;fillColor=none;startSize=0;collapsible=0;recursiveResize=0;expand=0;fontSize=16;" vertex="1" parent="DbjakEhUT0rDd5aO4bZs-41">
          <mxGeometry x="650" width="180" height="177" as="geometry">
            <mxRectangle width="180" height="177" as="alternateBounds" />
          </mxGeometry>
        </mxCell>
        <mxCell id="DbjakEhUT0rDd5aO4bZs-87" value="Сайт" style="rounded=1;whiteSpace=wrap;html=1;fillColor=#1ba1e2;strokeColor=#006EAF;fontColor=#ffffff;" vertex="1" parent="DbjakEhUT0rDd5aO4bZs-54">
          <mxGeometry x="40" y="26" width="110" height="44" as="geometry" />
        </mxCell>
        <mxCell id="DbjakEhUT0rDd5aO4bZs-88" value="Интернет банкинг" style="rounded=1;whiteSpace=wrap;html=1;fillColor=#008a00;strokeColor=#005700;fontColor=#ffffff;" vertex="1" parent="DbjakEhUT0rDd5aO4bZs-54">
          <mxGeometry x="40" y="86" width="110" height="44" as="geometry" />
        </mxCell>
        <mxCell id="DbjakEhUT0rDd5aO4bZs-60" style="swimlane;swimlaneHead=0;swimlaneBody=0;fontStyle=0;connectable=0;strokeColor=inherit;fillColor=none;startSize=0;collapsible=0;recursiveResize=0;expand=0;fontSize=16;" vertex="1" parent="DbjakEhUT0rDd5aO4bZs-41">
          <mxGeometry x="830" width="180" height="177" as="geometry">
            <mxRectangle width="180" height="177" as="alternateBounds" />
          </mxGeometry>
        </mxCell>
        <mxCell id="DbjakEhUT0rDd5aO4bZs-66" style="swimlane;swimlaneHead=0;swimlaneBody=0;fontStyle=0;connectable=0;strokeColor=inherit;fillColor=none;startSize=0;collapsible=0;recursiveResize=0;expand=0;fontSize=16;" vertex="1" parent="DbjakEhUT0rDd5aO4bZs-41">
          <mxGeometry x="1010" width="200" height="177" as="geometry">
            <mxRectangle width="200" height="177" as="alternateBounds" />
          </mxGeometry>
        </mxCell>
        <mxCell id="DbjakEhUT0rDd5aO4bZs-76" style="swimlane;swimlaneHead=0;swimlaneBody=0;fontStyle=0;connectable=0;strokeColor=inherit;fillColor=none;startSize=0;collapsible=0;recursiveResize=0;expand=0;fontSize=16;" vertex="1" parent="1">
          <mxGeometry x="620" y="770" width="160" height="177" as="geometry">
            <mxRectangle width="160" height="177" as="alternateBounds" />
          </mxGeometry>
        </mxCell>
        <mxCell id="DbjakEhUT0rDd5aO4bZs-77" style="swimlane;swimlaneHead=0;swimlaneBody=0;fontStyle=0;connectable=0;strokeColor=inherit;fillColor=none;startSize=0;collapsible=0;recursiveResize=0;expand=0;fontSize=16;" vertex="1" parent="DbjakEhUT0rDd5aO4bZs-76">
          <mxGeometry x="-20" width="180" height="177" as="geometry">
            <mxRectangle width="180" height="177" as="alternateBounds" />
          </mxGeometry>
        </mxCell>
        <mxCell id="DbjakEhUT0rDd5aO4bZs-78" style="swimlane;swimlaneHead=0;swimlaneBody=0;fontStyle=0;connectable=0;strokeColor=inherit;fillColor=none;startSize=0;collapsible=0;recursiveResize=0;expand=0;fontSize=16;" vertex="1" parent="DbjakEhUT0rDd5aO4bZs-77">
          <mxGeometry y="1" width="180" height="176" as="geometry">
            <mxRectangle width="180" height="176" as="alternateBounds" />
          </mxGeometry>
        </mxCell>
        <mxCell id="DbjakEhUT0rDd5aO4bZs-79" value="телеком оператор" style="rounded=1;whiteSpace=wrap;html=1;fillColor=#ffcccc;strokeColor=#36393d;" vertex="1" parent="DbjakEhUT0rDd5aO4bZs-78">
          <mxGeometry x="45" y="100" width="110" height="32" as="geometry" />
        </mxCell>
        <mxCell id="DbjakEhUT0rDd5aO4bZs-75" value="СМС-шлюз" style="rounded=1;whiteSpace=wrap;html=1;fillColor=#ffcc99;strokeColor=#36393d;" vertex="1" parent="DbjakEhUT0rDd5aO4bZs-78">
          <mxGeometry x="45" y="149" width="110" height="32" as="geometry" />
        </mxCell>
        <mxCell id="DbjakEhUT0rDd5aO4bZs-82" style="swimlane;swimlaneHead=0;swimlaneBody=0;fontStyle=0;connectable=0;strokeColor=inherit;fillColor=none;startSize=0;collapsible=0;recursiveResize=0;expand=0;fontSize=16;" vertex="1" parent="DbjakEhUT0rDd5aO4bZs-78">
          <mxGeometry x="10" y="-81" width="180" height="177" as="geometry">
            <mxRectangle width="180" height="177" as="alternateBounds" />
          </mxGeometry>
        </mxCell>
        <mxCell id="DbjakEhUT0rDd5aO4bZs-83" style="swimlane;swimlaneHead=0;swimlaneBody=0;fontStyle=0;connectable=0;strokeColor=inherit;fillColor=none;startSize=0;collapsible=0;recursiveResize=0;expand=0;fontSize=16;" vertex="1" parent="DbjakEhUT0rDd5aO4bZs-82">
          <mxGeometry y="1" width="180" height="176" as="geometry">
            <mxRectangle width="180" height="176" as="alternateBounds" />
          </mxGeometry>
        </mxCell>
        <mxCell id="DbjakEhUT0rDd5aO4bZs-84" value="АБС" style="rounded=1;whiteSpace=wrap;html=1;fillColor=#cdeb8b;strokeColor=#36393d;" vertex="1" parent="DbjakEhUT0rDd5aO4bZs-83">
          <mxGeometry x="-320" y="99" width="640" height="32" as="geometry" />
        </mxCell>
      </root>
    </mxGraphModel>
  </diagram>
</mxfile>
